<svg width="49" height="50" viewBox="0 0 49 50" fill="none" xmlns="http://www.w3.org/2000/svg">
<path d="M23.9062 -0.0312494C23.8633 -0.0234369 23.8203 -0.0117182 23.7812 6.44475e-07C23.3164 0.10547 22.9883 0.523439 23 1V4.03125C9.61719 4.46875 0 13.5625 0 26C0 26.4453 0.292969 26.8438 0.71875 26.9688C0.8125 26.9961 0.90625 27 1 27C1.33594 27 1.65625 26.8242 1.84375 26.5312C1.86719 26.4961 4.15234 23 9 23C11.6719 23 14.1641 24.3359 15.6562 26.5625C16.0273 27.1172 16.9727 27.1172 17.3438 26.5625C18.8359 24.3359 21.3281 23 24 23C26.6719 23 29.1641 24.3359 30.6562 26.5625C31.0273 27.1172 31.9727 27.1172 32.3438 26.5625C33.8359 24.3359 36.3281 23 39 23C43.0195 23 46.2188 26.6211 46.25 26.6562C46.4375 26.8711 46.6953 26.9922 46.9688 27C47.5117 27.0117 48.0312 26.5703 48.0312 26C48.0312 25.9297 48.0156 25.8477 48 25.7812C47.8945 13.4492 38.3125 4.46484 25 4.03125V1C25.0117 0.710939 24.8945 0.433595 24.6875 0.238282C24.4766 0.0390631 24.1914 -0.0585932 23.9062 -0.0312494ZM23 25V32.8125C22.9922 32.875 22.9922 32.9375 23 33V43C23 45.7734 20.7734 48 18 48C15.2266 48 13 45.7734 13 43C13.0039 42.6406 12.8164 42.3047 12.5039 42.1211C12.1914 41.9414 11.8086 41.9414 11.4961 42.1211C11.1836 42.3047 10.9961 42.6406 11 43C11 46.8555 14.1445 50 18 50C21.8555 50 25 46.8555 25 43V33C25.0078 32.9375 25.0078 32.875 25 32.8125V25H23Z" fill="#E2231A"/>
</svg>
