<svg width="51" height="50" viewBox="0 0 51 50" fill="none" xmlns="http://www.w3.org/2000/svg">
<path d="M12.334 2C9.02539 2 6.33398 4.69141 6.33398 8V42.418C6.33398 45.4961 9.02539 48 12.334 48H44.334V46H12.334C10.166 46 8.33398 44.3594 8.33398 42.418C8.33398 40.5039 10.0918 39 12.334 39H44.334V2H12.334ZM25.334 11C25.334 11 25.9746 11.9609 26.5293 13.1562C27.623 12.8516 29.041 12.957 30.5918 14.2227C31.6387 15.082 33.3027 15.0039 33.3184 15V15.043L33.334 15.0156L38.334 25.0156V25.25C38.334 27.8672 36.0918 30 33.334 30C30.5762 30 28.334 27.8672 28.334 25.25V25.0156L32.3652 16.9531C31.5098 16.8516 30.2988 16.5742 29.3223 15.7773C28.4512 15.0625 27.7402 14.9336 27.2051 15.0273C27.2832 15.3633 27.334 15.6953 27.334 16C27.334 17.1055 26.4395 18 25.334 18C24.2285 18 23.334 17.1055 23.334 16C23.334 15.6953 23.3848 15.3672 23.4629 15.0312C22.9238 14.9414 22.209 15.0625 21.3418 15.7734C20.3652 16.5703 19.1582 16.8516 18.3027 16.9531L22.334 25.0156V25.25C22.334 27.8672 20.0918 30 17.334 30C14.5762 30 12.334 27.8672 12.334 25.25V25.0156L17.334 15.0156L17.3496 15.0469V15C17.3691 15 19.0293 15.082 20.0762 14.2266C21.627 12.957 23.0449 12.8516 24.1387 13.1562C24.6934 11.957 25.334 11 25.334 11ZM17.334 19.4844L14.5762 25H20.0918L17.334 19.4844ZM33.334 19.4844L30.5762 25H36.0918L33.334 19.4844Z" fill="#E2231A"/>
</svg>
