<svg width="49" height="48" viewBox="0 0 49 48" fill="none" xmlns="http://www.w3.org/2000/svg">
<path d="M24.667 0C23.4951 0 19.667 0.144531 19.667 2V13C19.667 14.1016 20.5654 15 21.667 15C21.792 15 21.9248 14.9844 22.042 14.9375C22.0498 14.9336 22.9365 14.5938 24.667 14.5938C26.374 14.5938 27.2607 14.9258 27.292 14.9375C27.4092 14.9844 27.5381 15 27.667 15C28.7686 15 29.667 14.1016 29.667 13V2C29.667 0.144531 25.8389 0 24.667 0ZM12.5107 1.0625C10.1436 1.125 7.37793 1.85547 4.94824 4.28125C0.0888672 9.14062 1.98731 15.3633 2.60449 17C2.63184 17 2.63965 17 2.66699 17H13.667C14.4287 17 15.124 17.2266 15.7295 17.5938C16.4287 16.6211 17.2881 15.7617 18.2607 15.0625C17.8896 14.457 17.667 13.7617 17.667 13V2C17.667 1.97656 17.667 1.96094 17.667 1.9375C16.8467 1.62891 14.8779 1 12.5107 1.0625ZM35.9482 1.0625C33.9756 1.14453 32.3857 1.66797 31.667 1.9375C31.667 1.96094 31.667 1.97656 31.667 2V13C31.667 13.7617 31.4404 14.457 31.0732 15.0625C32.0459 15.7617 32.9053 16.6211 33.6045 17.5938C34.21 17.2227 34.9053 17 35.667 17H46.667C46.6943 17 46.7021 17 46.7295 17C47.3467 15.3633 49.2451 9.14062 44.3857 4.28125C41.6553 1.54688 38.4834 0.957031 35.9482 1.0625ZM12.6357 3.03125C13.4482 3.01172 14.1982 3.10156 14.8545 3.21875C10.0342 5.49609 6.16309 9.36719 3.88574 14.1875C3.4834 11.9609 3.52637 8.57812 6.38574 5.71875C8.40137 3.69922 10.6826 3.07812 12.6357 3.03125ZM35.8857 3.03125C37.9951 2.91797 40.6436 3.41406 42.9482 5.71875C45.8076 8.57812 45.8506 11.9609 45.4482 14.1875C43.1709 9.36719 39.2998 5.49609 34.4795 3.21875C34.9092 3.14062 35.3818 3.05859 35.8857 3.03125ZM2.66699 19C0.811523 19 0.666992 22.8281 0.666992 24C0.666992 25.1719 0.811523 29 2.66699 29H13.667C14.7686 29 15.667 28.1016 15.667 27C15.667 26.875 15.6514 26.7422 15.6045 26.625C15.6006 26.6172 15.2607 25.7344 15.2607 24C15.2607 22.2695 15.6045 21.375 15.6045 21.375C15.6553 21.2539 15.667 21.1328 15.667 21C15.667 19.8984 14.7686 19 13.667 19H2.66699ZM35.667 19C34.5654 19 33.667 19.8984 33.667 21C33.667 21.125 33.6826 21.2578 33.7295 21.375C33.7334 21.3828 34.0732 22.2656 34.0732 24C34.0732 25.7305 33.7295 26.625 33.7295 26.625C33.6787 26.7461 33.667 26.8672 33.667 27C33.667 28.1016 34.5654 29 35.667 29H46.667C48.5225 29 48.667 25.1719 48.667 24C48.667 22.8281 48.5225 19 46.667 19H35.667ZM15.7295 30.4062C15.124 30.7773 14.4287 31 13.667 31H2.66699C2.63965 31 2.63184 31 2.60449 31C1.98731 32.6367 0.0888672 38.8594 4.94824 43.7188C7.49121 46.2617 10.417 46.9375 12.8545 46.9375C15.0654 46.9375 16.8818 46.3594 17.667 46.0625C17.667 46.0391 17.667 46.0234 17.667 46V35C17.667 34.2383 17.8936 33.543 18.2607 32.9375C17.2881 32.2383 16.4287 31.3789 15.7295 30.4062ZM33.6045 30.4062C32.9053 31.3789 32.0459 32.2383 31.0732 32.9375C31.4443 33.543 31.667 34.2383 31.667 35V46C31.667 46.0234 31.667 46.0391 31.667 46.0625C32.4521 46.3594 34.2686 46.9375 36.4795 46.9375C38.917 46.9375 41.8467 46.2578 44.3857 43.7188C49.2451 38.8594 47.3467 32.6367 46.7295 31C46.7021 31 46.6943 31 46.667 31H35.667C34.9053 31 34.21 30.7734 33.6045 30.4062ZM21.667 33C20.5654 33 19.667 33.8984 19.667 35V46C19.667 47.8555 23.4951 48 24.667 48C25.8389 48 29.667 47.8555 29.667 46V35C29.667 33.8984 28.7686 33 27.667 33C27.542 33 27.4092 33.0156 27.292 33.0625C27.2842 33.0664 26.3975 33.4062 24.667 33.4062C22.9365 33.4062 22.042 33.0625 22.042 33.0625C21.9209 33.0117 21.7998 33 21.667 33ZM3.88574 33.8125C6.16309 38.6328 10.0342 42.5039 14.8545 44.7812C12.6279 45.1836 9.24512 45.1406 6.38574 42.2812C3.52637 39.4219 3.4834 36.0391 3.88574 33.8125ZM45.4482 33.8125C45.8506 36.0391 45.8076 39.4219 42.9482 42.2812C40.0889 45.1406 36.7061 45.1836 34.4795 44.7812C39.2998 42.5039 43.1709 38.6328 45.4482 33.8125Z" fill="#E2231A"/>
</svg>
