<svg width="5" height="9" viewBox="0 0 5 9" fill="none" xmlns="http://www.w3.org/2000/svg">
<path d="M0.496129 0.0959473C0.416555 0.0959682 0.338796 0.11972 0.272792 0.164165C0.206788 0.208611 0.155539 0.271731 0.125596 0.345455C0.0956535 0.41918 0.0883778 0.50016 0.104699 0.578041C0.121021 0.655923 0.160198 0.727167 0.217222 0.782666L3.93441 4.49985L0.217222 8.21704C0.178833 8.2539 0.148183 8.29805 0.127069 8.3469C0.105955 8.39575 0.0948005 8.44832 0.094259 8.50154C0.0937175 8.55476 0.1038 8.60755 0.123916 8.65682C0.144031 8.70609 0.173776 8.75085 0.211408 8.78848C0.249039 8.82611 0.293801 8.85586 0.343072 8.87597C0.392343 8.89609 0.445133 8.90617 0.498349 8.90563C0.551565 8.90509 0.604139 8.89393 0.65299 8.87282C0.701842 8.85171 0.745989 8.82106 0.782847 8.78267L4.78285 4.78267C4.85783 4.70765 4.89996 4.60592 4.89996 4.49985C4.89996 4.39379 4.85783 4.29206 4.78285 4.21704L0.782847 0.217041C0.745571 0.178723 0.700994 0.148265 0.651748 0.127467C0.602502 0.106668 0.549586 0.0959504 0.496129 0.0959473Z" fill="#767676"/>
<path d="M0.496129 0.0959473C0.416555 0.0959682 0.338796 0.11972 0.272792 0.164165C0.206788 0.208611 0.155539 0.271731 0.125596 0.345455C0.0956535 0.41918 0.0883778 0.50016 0.104699 0.578041C0.121021 0.655923 0.160198 0.727167 0.217222 0.782666L3.93441 4.49985L0.217222 8.21704C0.178833 8.2539 0.148183 8.29805 0.127069 8.3469C0.105955 8.39575 0.0948005 8.44832 0.094259 8.50154C0.0937175 8.55476 0.1038 8.60755 0.123916 8.65682C0.144031 8.70609 0.173776 8.75085 0.211408 8.78848C0.249039 8.82611 0.293801 8.85586 0.343072 8.87597C0.392343 8.89609 0.445133 8.90617 0.498349 8.90563C0.551565 8.90509 0.604139 8.89393 0.65299 8.87282C0.701842 8.85171 0.745989 8.82106 0.782847 8.78267L4.78285 4.78267C4.85783 4.70765 4.89996 4.60592 4.89996 4.49985C4.89996 4.39379 4.85783 4.29206 4.78285 4.21704L0.782847 0.217041C0.745571 0.178723 0.700994 0.148265 0.651748 0.127467C0.602502 0.106668 0.549586 0.0959504 0.496129 0.0959473Z" fill="black" fill-opacity="0.2"/>
<path d="M0.496129 0.0959473C0.416555 0.0959682 0.338796 0.11972 0.272792 0.164165C0.206788 0.208611 0.155539 0.271731 0.125596 0.345455C0.0956535 0.41918 0.0883778 0.50016 0.104699 0.578041C0.121021 0.655923 0.160198 0.727167 0.217222 0.782666L3.93441 4.49985L0.217222 8.21704C0.178833 8.2539 0.148183 8.29805 0.127069 8.3469C0.105955 8.39575 0.0948005 8.44832 0.094259 8.50154C0.0937175 8.55476 0.1038 8.60755 0.123916 8.65682C0.144031 8.70609 0.173776 8.75085 0.211408 8.78848C0.249039 8.82611 0.293801 8.85586 0.343072 8.87597C0.392343 8.89609 0.445133 8.90617 0.498349 8.90563C0.551565 8.90509 0.604139 8.89393 0.65299 8.87282C0.701842 8.85171 0.745989 8.82106 0.782847 8.78267L4.78285 4.78267C4.85783 4.70765 4.89996 4.60592 4.89996 4.49985C4.89996 4.39379 4.85783 4.29206 4.78285 4.21704L0.782847 0.217041C0.745571 0.178723 0.700994 0.148265 0.651748 0.127467C0.602502 0.106668 0.549586 0.0959504 0.496129 0.0959473Z" fill="black" fill-opacity="0.2"/>
</svg>
