<svg width="8" height="16" viewBox="0 0 8 16" fill="none" xmlns="http://www.w3.org/2000/svg">
<path d="M0.660051 0.660156C0.527429 0.660191 0.397831 0.699777 0.287824 0.773853C0.177818 0.847928 0.0924025 0.953128 0.0424978 1.076C-0.00740688 1.19888 -0.019533 1.33384 0.00766964 1.46365C0.0348723 1.59345 0.100167 1.71219 0.195208 1.80469L6.39052 8L0.195208 14.1953C0.131225 14.2567 0.0801428 14.3303 0.0449526 14.4117C0.00976234 14.4932 -0.00882857 14.5808 -0.00973111 14.6695C-0.0106336 14.7582 0.00617047 14.8462 0.0396966 14.9283C0.0732227 15.0104 0.122797 15.085 0.185517 15.1477C0.248236 15.2104 0.322839 15.26 0.404958 15.2935C0.487076 15.3271 0.575058 15.3439 0.663752 15.343C0.752446 15.3421 0.840068 15.3235 0.921487 15.2883C1.00291 15.2531 1.07649 15.202 1.13792 15.138L7.80458 8.47135C7.92956 8.34633 7.99977 8.17678 7.99977 8C7.99977 7.82322 7.92956 7.65368 7.80458 7.52865L1.13792 0.861979C1.07579 0.798116 1.00149 0.747353 0.919417 0.712688C0.83734 0.678024 0.749148 0.660161 0.660051 0.660156Z" fill="#767676"/>
<path d="M0.660051 0.660156C0.527429 0.660191 0.397831 0.699777 0.287824 0.773853C0.177818 0.847928 0.0924025 0.953128 0.0424978 1.076C-0.00740688 1.19888 -0.019533 1.33384 0.00766964 1.46365C0.0348723 1.59345 0.100167 1.71219 0.195208 1.80469L6.39052 8L0.195208 14.1953C0.131225 14.2567 0.0801428 14.3303 0.0449526 14.4117C0.00976234 14.4932 -0.00882857 14.5808 -0.00973111 14.6695C-0.0106336 14.7582 0.00617047 14.8462 0.0396966 14.9283C0.0732227 15.0104 0.122797 15.085 0.185517 15.1477C0.248236 15.2104 0.322839 15.26 0.404958 15.2935C0.487076 15.3271 0.575058 15.3439 0.663752 15.343C0.752446 15.3421 0.840068 15.3235 0.921487 15.2883C1.00291 15.2531 1.07649 15.202 1.13792 15.138L7.80458 8.47135C7.92956 8.34633 7.99977 8.17678 7.99977 8C7.99977 7.82322 7.92956 7.65368 7.80458 7.52865L1.13792 0.861979C1.07579 0.798116 1.00149 0.747353 0.919417 0.712688C0.83734 0.678024 0.749148 0.660161 0.660051 0.660156Z" fill="black" fill-opacity="0.2"/>
<path d="M0.660051 0.660156C0.527429 0.660191 0.397831 0.699777 0.287824 0.773853C0.177818 0.847928 0.0924025 0.953128 0.0424978 1.076C-0.00740688 1.19888 -0.019533 1.33384 0.00766964 1.46365C0.0348723 1.59345 0.100167 1.71219 0.195208 1.80469L6.39052 8L0.195208 14.1953C0.131225 14.2567 0.0801428 14.3303 0.0449526 14.4117C0.00976234 14.4932 -0.00882857 14.5808 -0.00973111 14.6695C-0.0106336 14.7582 0.00617047 14.8462 0.0396966 14.9283C0.0732227 15.0104 0.122797 15.085 0.185517 15.1477C0.248236 15.2104 0.322839 15.26 0.404958 15.2935C0.487076 15.3271 0.575058 15.3439 0.663752 15.343C0.752446 15.3421 0.840068 15.3235 0.921487 15.2883C1.00291 15.2531 1.07649 15.202 1.13792 15.138L7.80458 8.47135C7.92956 8.34633 7.99977 8.17678 7.99977 8C7.99977 7.82322 7.92956 7.65368 7.80458 7.52865L1.13792 0.861979C1.07579 0.798116 1.00149 0.747353 0.919417 0.712688C0.83734 0.678024 0.749148 0.660161 0.660051 0.660156Z" fill="black" fill-opacity="0.2"/>
</svg>
