<svg width="16" height="16" viewBox="0 0 16 16" fill="none" xmlns="http://www.w3.org/2000/svg">
<path d="M11.8619 6.19525L7.99992 10.0573L4.13792 6.19525C3.87758 5.93492 3.45558 5.93492 3.19525 6.19525C2.93492 6.45558 2.93492 6.87758 3.19525 7.13792L7.52858 11.4713C7.65892 11.6016 7.82925 11.6666 7.99992 11.6666C8.17058 11.6666 8.34092 11.6016 8.47125 11.4713L12.8046 7.13792C13.0649 6.87758 13.0649 6.45558 12.8046 6.19525C12.5443 5.93492 12.1222 5.93492 11.8619 6.19525Z" fill="#767676"/>
<path d="M11.8619 6.19525L7.99992 10.0573L4.13792 6.19525C3.87758 5.93492 3.45558 5.93492 3.19525 6.19525C2.93492 6.45558 2.93492 6.87758 3.19525 7.13792L7.52858 11.4713C7.65892 11.6016 7.82925 11.6666 7.99992 11.6666C8.17058 11.6666 8.34092 11.6016 8.47125 11.4713L12.8046 7.13792C13.0649 6.87758 13.0649 6.45558 12.8046 6.19525C12.5443 5.93492 12.1222 5.93492 11.8619 6.19525Z" fill="black" fill-opacity="0.2"/>
<path d="M11.8619 6.19525L7.99992 10.0573L4.13792 6.19525C3.87758 5.93492 3.45558 5.93492 3.19525 6.19525C2.93492 6.45558 2.93492 6.87758 3.19525 7.13792L7.52858 11.4713C7.65892 11.6016 7.82925 11.6666 7.99992 11.6666C8.17058 11.6666 8.34092 11.6016 8.47125 11.4713L12.8046 7.13792C13.0649 6.87758 13.0649 6.45558 12.8046 6.19525C12.5443 5.93492 12.1222 5.93492 11.8619 6.19525Z" fill="black" fill-opacity="0.2"/>
</svg>
