<svg width="30" height="30" viewBox="0 0 30 30" fill="none" xmlns="http://www.w3.org/2000/svg">
<g clip-path="url(#clip0_123_3222)">
<path d="M12.0001 0C11.7349 0 11.4805 0.105357 11.293 0.292893C11.1054 0.48043 11.0001 0.734784 11.0001 1C11.0001 1.26522 11.1054 1.51957 11.293 1.70711C11.4805 1.89464 11.7349 2 12.0001 2C12.2653 2 12.5197 1.89464 12.7072 1.70711C12.8947 1.51957 13.0001 1.26522 13.0001 1C13.0001 0.734784 12.8947 0.48043 12.7072 0.292893C12.5197 0.105357 12.2653 0 12.0001 0ZM17.9786 0C17.7134 0 17.459 0.105357 17.2715 0.292893C17.084 0.48043 16.9786 0.734784 16.9786 1C16.9786 1.26522 17.084 1.51957 17.2715 1.70711C17.459 1.89464 17.7134 2 17.9786 2C18.2438 2 18.4982 1.89464 18.6857 1.70711C18.8732 1.51957 18.9786 1.26522 18.9786 1C18.9786 0.734784 18.8732 0.48043 18.6857 0.292893C18.4982 0.105357 18.2438 0 17.9786 0ZM11.9356 4.00391C11.806 4.01208 11.6763 4.04422 11.5528 4.10547C11.0588 4.35247 10.8586 4.95327 11.1056 5.44727C11.1566 5.55127 12.4121 8 15.0001 8C17.5881 8 18.8426 5.55227 18.8946 5.44727C19.1406 4.95527 18.9413 4.36033 18.4513 4.11133C17.9663 3.86233 17.3615 4.05688 17.1095 4.54688C17.1015 4.56187 16.3421 6 15.0001 6C13.6581 6 12.8986 4.56173 12.8946 4.55273C12.7086 4.18223 12.3244 3.97939 11.9356 4.00391ZM7.879 6.00781C7.75 6.0235 7.62204 6.06431 7.50204 6.13281L4.16806 8.05078C4.14406 8.06378 4.13146 8.08656 4.10947 8.10156C3.93647 8.17756 3.78025 8.28945 3.66025 8.43945L0.189543 12.8398C-0.192457 13.3238 -0.0889878 14.0179 0.420012 14.3809L3.42978 16.5254V22.2812C3.42978 22.6443 3.62531 22.9954 3.94931 23.1934L14.3634 29.7949C14.5484 29.9159 14.7811 29.9805 15.0001 29.9805C15.2191 29.9805 15.4518 29.9159 15.6368 29.7949L26.0509 23.1934C26.3749 22.9954 26.5704 22.6443 26.5704 22.2812V16.5254L29.5802 14.3809C30.0892 14.0179 30.1926 13.3238 29.8106 12.8398L26.3399 8.43945C26.3189 8.41245 26.2878 8.399 26.2638 8.375C26.1818 8.262 26.0803 8.16089 25.9513 8.08789L22.4923 6.13086C22.0103 5.85986 21.4019 6.02781 21.1309 6.50781C20.8589 6.98881 21.0269 7.59714 21.5079 7.86914L23.4142 8.94922L18.7267 11.9727L18.7618 11.9941L15.0001 14.3809L14.2364 13.8965V13.8867L6.62314 8.94531L8.49814 7.86719C8.97714 7.59219 9.14328 6.98095 8.86728 6.50195C8.66028 6.14345 8.266 5.96075 7.879 6.00781ZM4.85165 10.5977L13.1837 15.877L10.2677 18.6484L2.73447 13.2812L4.85165 10.5977ZM25.1485 10.5977L27.2657 13.2812L19.7325 18.6484L16.8165 15.877L25.1485 10.5977Z" fill="#7C130E"/>
</g>
<defs>
<clipPath id="clip0_123_3222">
<rect width="30" height="30" fill="white"/>
</clipPath>
</defs>
</svg>
