<svg width="20" height="18" viewBox="0 0 20 18" fill="none" xmlns="http://www.w3.org/2000/svg">
<path d="M1.19958 0.200001C1.09357 0.198501 0.988318 0.218086 0.889943 0.257617C0.791569 0.297148 0.702032 0.355837 0.626536 0.430273C0.55104 0.504708 0.491091 0.593406 0.450173 0.691212C0.409255 0.789018 0.388184 0.893981 0.388184 1C0.388184 1.10602 0.409255 1.21098 0.450173 1.30879C0.491091 1.40659 0.55104 1.49529 0.626536 1.56973C0.702032 1.64416 0.791569 1.70285 0.889943 1.74238C0.988318 1.78191 1.09357 1.8015 1.19958 1.8H1.8402L7.59958 9H12.3996L18.159 1.8H18.7996C18.9056 1.8015 19.0108 1.78191 19.1092 1.74238C19.2076 1.70285 19.2971 1.64416 19.3726 1.56973C19.4481 1.49529 19.5081 1.40659 19.549 1.30879C19.5899 1.21098 19.611 1.10602 19.611 1C19.611 0.893981 19.5899 0.789018 19.549 0.691212C19.5081 0.593406 19.4481 0.504708 19.3726 0.430273C19.2971 0.355837 19.2076 0.297148 19.1092 0.257617C19.0108 0.218086 18.9056 0.198501 18.7996 0.200001H1.19958ZM7.59958 10.6V17.8L12.3996 16.2V10.6H7.59958Z" fill="#767676"/>
<path d="M1.19958 0.200001C1.09357 0.198501 0.988318 0.218086 0.889943 0.257617C0.791569 0.297148 0.702032 0.355837 0.626536 0.430273C0.55104 0.504708 0.491091 0.593406 0.450173 0.691212C0.409255 0.789018 0.388184 0.893981 0.388184 1C0.388184 1.10602 0.409255 1.21098 0.450173 1.30879C0.491091 1.40659 0.55104 1.49529 0.626536 1.56973C0.702032 1.64416 0.791569 1.70285 0.889943 1.74238C0.988318 1.78191 1.09357 1.8015 1.19958 1.8H1.8402L7.59958 9H12.3996L18.159 1.8H18.7996C18.9056 1.8015 19.0108 1.78191 19.1092 1.74238C19.2076 1.70285 19.2971 1.64416 19.3726 1.56973C19.4481 1.49529 19.5081 1.40659 19.549 1.30879C19.5899 1.21098 19.611 1.10602 19.611 1C19.611 0.893981 19.5899 0.789018 19.549 0.691212C19.5081 0.593406 19.4481 0.504708 19.3726 0.430273C19.2971 0.355837 19.2076 0.297148 19.1092 0.257617C19.0108 0.218086 18.9056 0.198501 18.7996 0.200001H1.19958ZM7.59958 10.6V17.8L12.3996 16.2V10.6H7.59958Z" fill="black" fill-opacity="0.2"/>
<path d="M1.19958 0.200001C1.09357 0.198501 0.988318 0.218086 0.889943 0.257617C0.791569 0.297148 0.702032 0.355837 0.626536 0.430273C0.55104 0.504708 0.491091 0.593406 0.450173 0.691212C0.409255 0.789018 0.388184 0.893981 0.388184 1C0.388184 1.10602 0.409255 1.21098 0.450173 1.30879C0.491091 1.40659 0.55104 1.49529 0.626536 1.56973C0.702032 1.64416 0.791569 1.70285 0.889943 1.74238C0.988318 1.78191 1.09357 1.8015 1.19958 1.8H1.8402L7.59958 9H12.3996L18.159 1.8H18.7996C18.9056 1.8015 19.0108 1.78191 19.1092 1.74238C19.2076 1.70285 19.2971 1.64416 19.3726 1.56973C19.4481 1.49529 19.5081 1.40659 19.549 1.30879C19.5899 1.21098 19.611 1.10602 19.611 1C19.611 0.893981 19.5899 0.789018 19.549 0.691212C19.5081 0.593406 19.4481 0.504708 19.3726 0.430273C19.2971 0.355837 19.2076 0.297148 19.1092 0.257617C19.0108 0.218086 18.9056 0.198501 18.7996 0.200001H1.19958ZM7.59958 10.6V17.8L12.3996 16.2V10.6H7.59958Z" fill="black" fill-opacity="0.2"/>
</svg>
