<svg width="30" height="24" viewBox="0 0 30 24" fill="none" xmlns="http://www.w3.org/2000/svg">
<path d="M6.60156 0C5.68756 0 5 1 5 1C-0.235 1 2.65323 9.35589 1.11523 10.5879C1.11523 10.5879 2.058 11.7539 5 11.7539V12.752C4.187 14.87 0 14.087 0 18H8.02344C8.72744 17.574 11 16.3926 11 16.3926C10.457 15.8126 9.67367 14.8098 9.38867 14.0508C8.76467 13.7378 8.237 13.37 8 12.752V11.7422C8.19 11.7422 8.75027 11.6983 8.94727 11.6543C8.50127 10.9673 8.125 9.40144 8.125 8.52344C8.125 6.29044 9.08664 4.45373 10.6816 3.30273C10.2006 1.46173 9.13256 0 6.60156 0ZM23 0C20.777 0 19.412 1.5292 19.082 3.5332C20.698 4.3992 21.75 6.26619 21.75 8.61719C21.75 9.35219 21.5786 10.0594 21.3926 10.6074C21.4616 10.8784 21.5 11.1806 21.5 11.5156C21.5 13.9856 19 16.4492 19 16.4492C19.543 16.6862 21.2802 17.569 21.9902 18H30C30 12.75 25.737 14.25 25 12V10.5C25.332 10.333 26.1227 9.18316 26.2227 8.28516C26.4827 8.26516 27 7.62955 27 7.06055C27 6.49155 26.8191 6.25216 26.6621 6.16016C26.6621 6.16016 27 5.409 27 4.5C27 2.679 26.508 1 25 1C25 1 24.567 0 23 0ZM15 4C12.308 4 10.125 5.62144 10.125 8.52344C10.125 9.75044 10.8125 10.707 10.8125 10.707C10.8125 10.707 10.5 10.8606 10.5 11.5156C10.5 12.7886 11.3184 13.0938 11.3184 13.0938C11.4324 14.1018 13 15.5781 13 15.5781V17.2637C12.158 19.7897 7 18.125 7 24H23C23 18.105 17.842 19.7897 17 17.2637V15.5781C17 15.5781 18.5676 14.1018 18.6816 13.0938C18.6816 13.0938 19.5 12.5286 19.5 11.5156C19.5 10.8136 19.1875 10.707 19.1875 10.707C19.1875 10.707 19.75 9.63719 19.75 8.61719C19.75 6.57219 18.724 5 17 5C17 5 16.268 4 15 4Z" fill="#E2231A"/>
</svg>
