<svg width="30" height="30" viewBox="0 0 30 30" fill="none" xmlns="http://www.w3.org/2000/svg">
<path d="M1.99959 2.00001C1.86708 1.99813 1.73552 2.02262 1.61255 2.07203C1.48958 2.12144 1.37766 2.1948 1.28329 2.28785C1.18892 2.38089 1.11399 2.49177 1.06284 2.61402C1.01169 2.73628 0.985352 2.86748 0.985352 3.00001C0.985352 3.13253 1.01169 3.26374 1.06284 3.38599C1.11399 3.50825 1.18892 3.61912 1.28329 3.71217C1.37766 3.80521 1.48958 3.87857 1.61255 3.92799C1.73552 3.9774 1.86708 4.00188 1.99959 4.00001H3.8785C4.1044 4.00001 4.2929 4.14147 4.35702 4.35938L8.61873 18.8477C8.99277 20.1194 10.169 21 11.4957 21H22.4722C23.8207 21 25.0112 20.0887 25.3668 18.7891L27.9644 9.26368C28.005 9.11529 28.0107 8.95956 27.9813 8.80858C27.9518 8.6576 27.8879 8.51545 27.7946 8.39319C27.7012 8.27093 27.5809 8.17185 27.4431 8.10365C27.3052 8.03546 27.1534 7.99999 26.9996 8.00001H22.9996H17.9996V9.00001V14.5859L20.2926 12.293C20.6836 11.902 21.3156 11.902 21.7066 12.293C22.0976 12.684 22.0976 13.316 21.7066 13.707L17.7066 17.707C17.5116 17.902 17.2556 18 16.9996 18C16.7436 18 16.4876 17.902 16.2926 17.707L12.2926 13.707C11.9016 13.316 11.9016 12.684 12.2926 12.293C12.6836 11.902 13.3156 11.902 13.7066 12.293L15.9996 14.5859V9.00001V8.00001H7.51327L6.27694 3.79493C6.27629 3.79493 6.27564 3.79493 6.27498 3.79493C5.96309 2.73484 4.9826 2.00001 3.8785 2.00001H1.99959ZM15.9996 8.00001H17.9996V3.00001C17.9996 2.44801 17.5516 2.00001 16.9996 2.00001C16.4476 2.00001 15.9996 2.44801 15.9996 3.00001V8.00001ZM11.9996 23C10.8946 23 9.99959 23.895 9.99959 25C9.99959 26.105 10.8946 27 11.9996 27C13.1046 27 13.9996 26.105 13.9996 25C13.9996 23.895 13.1046 23 11.9996 23ZM21.9996 23C20.8946 23 19.9996 23.895 19.9996 25C19.9996 26.105 20.8946 27 21.9996 27C23.1046 27 23.9996 26.105 23.9996 25C23.9996 23.895 23.1046 23 21.9996 23Z" fill="#E2231A"/>
</svg>
