<svg width="24" height="24" viewBox="0 0 24 24" fill="none" xmlns="http://www.w3.org/2000/svg">
<path d="M12 0C5.373 0 0 5.373 0 12C0 18.627 5.373 24 12 24C18.627 24 24 18.627 24 12C24 5.373 18.627 0 12 0ZM5 19.141C6.167 15.641 9.667 17.007 10.25 15.111V13.847C9.988 13.706 9.237 12.738 9.158 11.982C8.951 11.964 8.627 11.759 8.531 10.948C8.48 10.513 8.684 10.268 8.807 10.191C8.807 10.191 8.499 9.489 8.499 8.792C8.5 6.72 9.526 5 12 5C13.336 5 13.75 5.947 13.75 5.947C14.944 5.947 15.5 7.256 15.5 8.791C15.5 9.556 15.192 10.19 15.192 10.19C15.316 10.267 15.52 10.512 15.469 10.947C15.373 11.758 15.049 11.963 14.842 11.981C14.763 12.737 14.013 13.705 13.75 13.846V15.11C14.333 17.007 17.833 15.641 19 19.141C19 19.141 16.382 22 12 22C7.593 22 5 19.141 5 19.141Z" fill="#E2231A"/>
</svg>
