<svg width="21" height="20" viewBox="0 0 21 20" fill="none" xmlns="http://www.w3.org/2000/svg">
<g opacity="0.4">
<path d="M2.0248 4L9.55735 11.0299C9.99269 11.4359 10.6741 11.4359 11.1094 11.0299L18.642 4H2.0248ZM1.00006 4.86719V16H19.6667V4.86719L12.0196 12.0052C11.5469 12.4465 10.9401 12.6667 10.3334 12.6667C9.72673 12.6667 9.11986 12.4465 8.6472 12.0052L1.00006 4.86719Z" fill="#767676"/>
<path d="M2.0248 4L9.55735 11.0299C9.99269 11.4359 10.6741 11.4359 11.1094 11.0299L18.642 4H2.0248ZM1.00006 4.86719V16H19.6667V4.86719L12.0196 12.0052C11.5469 12.4465 10.9401 12.6667 10.3334 12.6667C9.72673 12.6667 9.11986 12.4465 8.6472 12.0052L1.00006 4.86719Z" fill="black" fill-opacity="0.2"/>
<path d="M2.0248 4L9.55735 11.0299C9.99269 11.4359 10.6741 11.4359 11.1094 11.0299L18.642 4H2.0248ZM1.00006 4.86719V16H19.6667V4.86719L12.0196 12.0052C11.5469 12.4465 10.9401 12.6667 10.3334 12.6667C9.72673 12.6667 9.11986 12.4465 8.6472 12.0052L1.00006 4.86719Z" fill="black" fill-opacity="0.2"/>
</g>
</svg>
