<svg width="21" height="20" viewBox="0 0 21 20" fill="none" xmlns="http://www.w3.org/2000/svg">
<g opacity="0.4">
<path d="M11 2.00007C10.9116 1.99882 10.8239 2.01514 10.742 2.04808C10.66 2.08102 10.5854 2.12993 10.5225 2.19196C10.4595 2.25399 10.4096 2.3279 10.3755 2.40941C10.3414 2.49091 10.3238 2.57838 10.3238 2.66673C10.3238 2.75508 10.3414 2.84255 10.3755 2.92406C10.4096 3.00556 10.4595 3.07948 10.5225 3.14151C10.5854 3.20354 10.66 3.25244 10.742 3.28539C10.8239 3.31833 10.9116 3.33465 11 3.3334C14.3217 3.3334 17 6.01167 17 9.3334C16.9987 9.42174 17.0151 9.50945 17.048 9.59143C17.0809 9.67341 17.1299 9.74802 17.1919 9.81094C17.2539 9.87385 17.3278 9.92381 17.4093 9.9579C17.4908 9.992 17.5783 10.0096 17.6667 10.0096C17.755 10.0096 17.8425 9.992 17.924 9.9579C18.0055 9.92381 18.0794 9.87385 18.1414 9.81094C18.2035 9.74802 18.2524 9.67341 18.2853 9.59143C18.3183 9.50945 18.3346 9.42174 18.3333 9.3334C18.3333 5.29113 15.0423 2.00007 11 2.00007ZM5.49218 3.336C5.40856 3.32908 5.32344 3.336 5.23827 3.35684C4.9076 3.4375 4.47863 3.6334 4.02864 4.0834C2.61997 5.49207 1.87259 7.8668 7.16926 13.1641C12.4659 18.4615 14.8407 17.7141 16.25 16.3048C16.7013 15.8534 16.8972 15.4238 16.9779 15.0925C17.0599 14.7532 16.9133 14.4039 16.612 14.2279C15.86 13.7879 14.237 12.8366 13.4844 12.3959C13.237 12.2512 12.9335 12.2538 12.6875 12.3998L11.4427 13.142C11.164 13.308 10.8159 13.2892 10.5599 13.0899C10.1179 12.7446 9.40708 12.163 8.78775 11.5443C8.16842 10.925 7.58684 10.2142 7.24218 9.7722C7.04284 9.51687 7.02343 9.16806 7.19009 8.88939L7.93228 7.6446C8.07895 7.3986 8.07955 7.09245 7.93489 6.84512L6.10676 3.72403C5.97376 3.49802 5.74302 3.35679 5.49218 3.336ZM11 4.66673C10.9116 4.66548 10.8239 4.6818 10.742 4.71475C10.66 4.74769 10.5854 4.7966 10.5225 4.85863C10.4595 4.92066 10.4096 4.99457 10.3755 5.07608C10.3414 5.15758 10.3238 5.24505 10.3238 5.3334C10.3238 5.42175 10.3414 5.50922 10.3755 5.59072C10.4096 5.67223 10.4595 5.74614 10.5225 5.80817C10.5854 5.8702 10.66 5.91911 10.742 5.95205C10.8239 5.985 10.9116 6.00132 11 6.00007C12.8491 6.00007 14.3333 7.48429 14.3333 9.3334C14.3321 9.42174 14.3484 9.50945 14.3813 9.59143C14.4143 9.67341 14.4632 9.74802 14.5252 9.81094C14.5872 9.87385 14.6612 9.92381 14.7427 9.9579C14.8242 9.992 14.9116 10.0096 15 10.0096C15.0883 10.0096 15.1758 9.992 15.2573 9.9579C15.3388 9.92381 15.4127 9.87385 15.4748 9.81094C15.5368 9.74802 15.5857 9.67341 15.6186 9.59143C15.6516 9.50945 15.6679 9.42174 15.6667 9.3334C15.6667 6.76384 13.5695 4.66673 11 4.66673ZM11 7.3334C10.9116 7.33215 10.8239 7.34847 10.742 7.38141C10.66 7.41436 10.5854 7.46326 10.5225 7.52529C10.4595 7.58732 10.4096 7.66124 10.3755 7.74274C10.3414 7.82425 10.3238 7.91172 10.3238 8.00007C10.3238 8.08842 10.3414 8.17589 10.3755 8.25739C10.4096 8.3389 10.4595 8.41281 10.5225 8.47484C10.5854 8.53687 10.66 8.58578 10.742 8.61872C10.8239 8.65166 10.9116 8.66798 11 8.66673C11.3767 8.66673 11.6667 8.95671 11.6667 9.3334C11.6654 9.42174 11.6817 9.50945 11.7147 9.59143C11.7476 9.67341 11.7965 9.74802 11.8585 9.81094C11.9206 9.87385 11.9945 9.92381 12.076 9.9579C12.1575 9.992 12.245 10.0096 12.3333 10.0096C12.4217 10.0096 12.5091 9.992 12.5906 9.9579C12.6722 9.92381 12.7461 9.87385 12.8081 9.81094C12.8701 9.74802 12.919 9.67341 12.952 9.59143C12.9849 9.50945 13.0012 9.42174 13 9.3334C13 8.23675 12.0966 7.3334 11 7.3334Z" fill="#767676"/>
<path d="M11 2.00007C10.9116 1.99882 10.8239 2.01514 10.742 2.04808C10.66 2.08102 10.5854 2.12993 10.5225 2.19196C10.4595 2.25399 10.4096 2.3279 10.3755 2.40941C10.3414 2.49091 10.3238 2.57838 10.3238 2.66673C10.3238 2.75508 10.3414 2.84255 10.3755 2.92406C10.4096 3.00556 10.4595 3.07948 10.5225 3.14151C10.5854 3.20354 10.66 3.25244 10.742 3.28539C10.8239 3.31833 10.9116 3.33465 11 3.3334C14.3217 3.3334 17 6.01167 17 9.3334C16.9987 9.42174 17.0151 9.50945 17.048 9.59143C17.0809 9.67341 17.1299 9.74802 17.1919 9.81094C17.2539 9.87385 17.3278 9.92381 17.4093 9.9579C17.4908 9.992 17.5783 10.0096 17.6667 10.0096C17.755 10.0096 17.8425 9.992 17.924 9.9579C18.0055 9.92381 18.0794 9.87385 18.1414 9.81094C18.2035 9.74802 18.2524 9.67341 18.2853 9.59143C18.3183 9.50945 18.3346 9.42174 18.3333 9.3334C18.3333 5.29113 15.0423 2.00007 11 2.00007ZM5.49218 3.336C5.40856 3.32908 5.32344 3.336 5.23827 3.35684C4.9076 3.4375 4.47863 3.6334 4.02864 4.0834C2.61997 5.49207 1.87259 7.8668 7.16926 13.1641C12.4659 18.4615 14.8407 17.7141 16.25 16.3048C16.7013 15.8534 16.8972 15.4238 16.9779 15.0925C17.0599 14.7532 16.9133 14.4039 16.612 14.2279C15.86 13.7879 14.237 12.8366 13.4844 12.3959C13.237 12.2512 12.9335 12.2538 12.6875 12.3998L11.4427 13.142C11.164 13.308 10.8159 13.2892 10.5599 13.0899C10.1179 12.7446 9.40708 12.163 8.78775 11.5443C8.16842 10.925 7.58684 10.2142 7.24218 9.7722C7.04284 9.51687 7.02343 9.16806 7.19009 8.88939L7.93228 7.6446C8.07895 7.3986 8.07955 7.09245 7.93489 6.84512L6.10676 3.72403C5.97376 3.49802 5.74302 3.35679 5.49218 3.336ZM11 4.66673C10.9116 4.66548 10.8239 4.6818 10.742 4.71475C10.66 4.74769 10.5854 4.7966 10.5225 4.85863C10.4595 4.92066 10.4096 4.99457 10.3755 5.07608C10.3414 5.15758 10.3238 5.24505 10.3238 5.3334C10.3238 5.42175 10.3414 5.50922 10.3755 5.59072C10.4096 5.67223 10.4595 5.74614 10.5225 5.80817C10.5854 5.8702 10.66 5.91911 10.742 5.95205C10.8239 5.985 10.9116 6.00132 11 6.00007C12.8491 6.00007 14.3333 7.48429 14.3333 9.3334C14.3321 9.42174 14.3484 9.50945 14.3813 9.59143C14.4143 9.67341 14.4632 9.74802 14.5252 9.81094C14.5872 9.87385 14.6612 9.92381 14.7427 9.9579C14.8242 9.992 14.9116 10.0096 15 10.0096C15.0883 10.0096 15.1758 9.992 15.2573 9.9579C15.3388 9.92381 15.4127 9.87385 15.4748 9.81094C15.5368 9.74802 15.5857 9.67341 15.6186 9.59143C15.6516 9.50945 15.6679 9.42174 15.6667 9.3334C15.6667 6.76384 13.5695 4.66673 11 4.66673ZM11 7.3334C10.9116 7.33215 10.8239 7.34847 10.742 7.38141C10.66 7.41436 10.5854 7.46326 10.5225 7.52529C10.4595 7.58732 10.4096 7.66124 10.3755 7.74274C10.3414 7.82425 10.3238 7.91172 10.3238 8.00007C10.3238 8.08842 10.3414 8.17589 10.3755 8.25739C10.4096 8.3389 10.4595 8.41281 10.5225 8.47484C10.5854 8.53687 10.66 8.58578 10.742 8.61872C10.8239 8.65166 10.9116 8.66798 11 8.66673C11.3767 8.66673 11.6667 8.95671 11.6667 9.3334C11.6654 9.42174 11.6817 9.50945 11.7147 9.59143C11.7476 9.67341 11.7965 9.74802 11.8585 9.81094C11.9206 9.87385 11.9945 9.92381 12.076 9.9579C12.1575 9.992 12.245 10.0096 12.3333 10.0096C12.4217 10.0096 12.5091 9.992 12.5906 9.9579C12.6722 9.92381 12.7461 9.87385 12.8081 9.81094C12.8701 9.74802 12.919 9.67341 12.952 9.59143C12.9849 9.50945 13.0012 9.42174 13 9.3334C13 8.23675 12.0966 7.3334 11 7.3334Z" fill="black" fill-opacity="0.2"/>
<path d="M11 2.00007C10.9116 1.99882 10.8239 2.01514 10.742 2.04808C10.66 2.08102 10.5854 2.12993 10.5225 2.19196C10.4595 2.25399 10.4096 2.3279 10.3755 2.40941C10.3414 2.49091 10.3238 2.57838 10.3238 2.66673C10.3238 2.75508 10.3414 2.84255 10.3755 2.92406C10.4096 3.00556 10.4595 3.07948 10.5225 3.14151C10.5854 3.20354 10.66 3.25244 10.742 3.28539C10.8239 3.31833 10.9116 3.33465 11 3.3334C14.3217 3.3334 17 6.01167 17 9.3334C16.9987 9.42174 17.0151 9.50945 17.048 9.59143C17.0809 9.67341 17.1299 9.74802 17.1919 9.81094C17.2539 9.87385 17.3278 9.92381 17.4093 9.9579C17.4908 9.992 17.5783 10.0096 17.6667 10.0096C17.755 10.0096 17.8425 9.992 17.924 9.9579C18.0055 9.92381 18.0794 9.87385 18.1414 9.81094C18.2035 9.74802 18.2524 9.67341 18.2853 9.59143C18.3183 9.50945 18.3346 9.42174 18.3333 9.3334C18.3333 5.29113 15.0423 2.00007 11 2.00007ZM5.49218 3.336C5.40856 3.32908 5.32344 3.336 5.23827 3.35684C4.9076 3.4375 4.47863 3.6334 4.02864 4.0834C2.61997 5.49207 1.87259 7.8668 7.16926 13.1641C12.4659 18.4615 14.8407 17.7141 16.25 16.3048C16.7013 15.8534 16.8972 15.4238 16.9779 15.0925C17.0599 14.7532 16.9133 14.4039 16.612 14.2279C15.86 13.7879 14.237 12.8366 13.4844 12.3959C13.237 12.2512 12.9335 12.2538 12.6875 12.3998L11.4427 13.142C11.164 13.308 10.8159 13.2892 10.5599 13.0899C10.1179 12.7446 9.40708 12.163 8.78775 11.5443C8.16842 10.925 7.58684 10.2142 7.24218 9.7722C7.04284 9.51687 7.02343 9.16806 7.19009 8.88939L7.93228 7.6446C8.07895 7.3986 8.07955 7.09245 7.93489 6.84512L6.10676 3.72403C5.97376 3.49802 5.74302 3.35679 5.49218 3.336ZM11 4.66673C10.9116 4.66548 10.8239 4.6818 10.742 4.71475C10.66 4.74769 10.5854 4.7966 10.5225 4.85863C10.4595 4.92066 10.4096 4.99457 10.3755 5.07608C10.3414 5.15758 10.3238 5.24505 10.3238 5.3334C10.3238 5.42175 10.3414 5.50922 10.3755 5.59072C10.4096 5.67223 10.4595 5.74614 10.5225 5.80817C10.5854 5.8702 10.66 5.91911 10.742 5.95205C10.8239 5.985 10.9116 6.00132 11 6.00007C12.8491 6.00007 14.3333 7.48429 14.3333 9.3334C14.3321 9.42174 14.3484 9.50945 14.3813 9.59143C14.4143 9.67341 14.4632 9.74802 14.5252 9.81094C14.5872 9.87385 14.6612 9.92381 14.7427 9.9579C14.8242 9.992 14.9116 10.0096 15 10.0096C15.0883 10.0096 15.1758 9.992 15.2573 9.9579C15.3388 9.92381 15.4127 9.87385 15.4748 9.81094C15.5368 9.74802 15.5857 9.67341 15.6186 9.59143C15.6516 9.50945 15.6679 9.42174 15.6667 9.3334C15.6667 6.76384 13.5695 4.66673 11 4.66673ZM11 7.3334C10.9116 7.33215 10.8239 7.34847 10.742 7.38141C10.66 7.41436 10.5854 7.46326 10.5225 7.52529C10.4595 7.58732 10.4096 7.66124 10.3755 7.74274C10.3414 7.82425 10.3238 7.91172 10.3238 8.00007C10.3238 8.08842 10.3414 8.17589 10.3755 8.25739C10.4096 8.3389 10.4595 8.41281 10.5225 8.47484C10.5854 8.53687 10.66 8.58578 10.742 8.61872C10.8239 8.65166 10.9116 8.66798 11 8.66673C11.3767 8.66673 11.6667 8.95671 11.6667 9.3334C11.6654 9.42174 11.6817 9.50945 11.7147 9.59143C11.7476 9.67341 11.7965 9.74802 11.8585 9.81094C11.9206 9.87385 11.9945 9.92381 12.076 9.9579C12.1575 9.992 12.245 10.0096 12.3333 10.0096C12.4217 10.0096 12.5091 9.992 12.5906 9.9579C12.6722 9.92381 12.7461 9.87385 12.8081 9.81094C12.8701 9.74802 12.919 9.67341 12.952 9.59143C12.9849 9.50945 13.0012 9.42174 13 9.3334C13 8.23675 12.0966 7.3334 11 7.3334Z" fill="black" fill-opacity="0.2"/>
</g>
</svg>
