<svg width="30" height="30" viewBox="0 0 30 30" fill="none" xmlns="http://www.w3.org/2000/svg">
<path d="M15.9999 3.00013C15.8674 2.99826 15.7358 3.02274 15.6128 3.07216C15.4899 3.12157 15.378 3.19493 15.2836 3.28797C15.1892 3.38102 15.1143 3.49189 15.0631 3.61415C15.012 3.73641 14.9857 3.86761 14.9857 4.00013C14.9857 4.13266 15.012 4.26386 15.0631 4.38612C15.1143 4.50838 15.1892 4.61925 15.2836 4.71229C15.378 4.80534 15.4899 4.8787 15.6128 4.92811C15.7358 4.97753 15.8674 5.00201 15.9999 5.00013C20.9825 5.00013 24.9999 9.01754 24.9999 14.0001C24.998 14.1326 25.0225 14.2642 25.0719 14.3872C25.1213 14.5101 25.1947 14.6221 25.2877 14.7164C25.3808 14.8108 25.4916 14.8857 25.6139 14.9369C25.7362 14.988 25.8674 15.0144 25.9999 15.0144C26.1324 15.0144 26.2636 14.988 26.3859 14.9369C26.5081 14.8857 26.619 14.8108 26.7121 14.7164C26.8051 14.6221 26.8785 14.5101 26.9279 14.3872C26.9773 14.2642 27.0018 14.1326 26.9999 14.0001C26.9999 7.93673 22.0633 3.00013 15.9999 3.00013ZM7.73817 5.00404C7.61275 4.99365 7.48506 5.00404 7.35731 5.03529C6.86131 5.15629 6.21786 5.45013 5.54286 6.12513C3.42986 8.23813 2.3088 11.8002 10.2538 19.7462C18.1988 27.6922 21.7609 26.5712 23.8749 24.4572C24.5519 23.7802 24.8457 23.1358 24.9667 22.6388C25.0897 22.1298 24.8699 21.6059 24.4179 21.3419C23.2899 20.6819 20.8555 19.2549 19.7265 18.5939C19.3555 18.3769 18.9001 18.3807 18.5311 18.5997L16.664 19.713C16.246 19.962 15.7237 19.9339 15.3397 19.6349C14.6767 19.1169 13.6105 18.2445 12.6815 17.3165C11.7525 16.3875 10.8802 15.3213 10.3632 14.6583C10.0642 14.2753 10.035 13.7521 10.285 13.3341L11.3983 11.4669C11.6183 11.0979 11.6192 10.6387 11.4022 10.2677L8.66005 5.58607C8.46055 5.24707 8.11444 5.03521 7.73817 5.00404ZM15.9999 7.00013C15.8674 6.99826 15.7358 7.02274 15.6128 7.07216C15.4899 7.12157 15.378 7.19493 15.2836 7.28797C15.1892 7.38102 15.1143 7.49189 15.0631 7.61415C15.012 7.73641 14.9857 7.86761 14.9857 8.00013C14.9857 8.13266 15.012 8.26386 15.0631 8.38612C15.1143 8.50838 15.1892 8.61925 15.2836 8.71229C15.378 8.80534 15.4899 8.8787 15.6128 8.92811C15.7358 8.97753 15.8674 9.00201 15.9999 9.00013C18.7736 9.00013 20.9999 11.2265 20.9999 14.0001C20.998 14.1326 21.0225 14.2642 21.0719 14.3872C21.1213 14.5101 21.1947 14.6221 21.2877 14.7164C21.3808 14.8108 21.4916 14.8857 21.6139 14.9369C21.7362 14.988 21.8674 15.0144 21.9999 15.0144C22.1324 15.0144 22.2636 14.988 22.3859 14.9369C22.5081 14.8857 22.619 14.8108 22.7121 14.7164C22.8051 14.6221 22.8785 14.5101 22.9279 14.3872C22.9773 14.2642 23.0018 14.1326 22.9999 14.0001C22.9999 10.1458 19.8542 7.00013 15.9999 7.00013ZM15.9999 11.0001C15.8674 10.9983 15.7358 11.0227 15.6128 11.0722C15.4899 11.1216 15.378 11.1949 15.2836 11.288C15.1892 11.381 15.1143 11.4919 15.0631 11.6141C15.012 11.7364 14.9857 11.8676 14.9857 12.0001C14.9857 12.1327 15.012 12.2639 15.0631 12.3861C15.1143 12.5084 15.1892 12.6193 15.2836 12.7123C15.378 12.8053 15.4899 12.8787 15.6128 12.9281C15.7358 12.9775 15.8674 13.002 15.9999 13.0001C16.5649 13.0001 16.9999 13.4351 16.9999 14.0001C16.998 14.1326 17.0225 14.2642 17.0719 14.3872C17.1213 14.5101 17.1947 14.6221 17.2877 14.7164C17.3808 14.8108 17.4916 14.8857 17.6139 14.9369C17.7362 14.988 17.8674 15.0144 17.9999 15.0144C18.1324 15.0144 18.2636 14.988 18.3859 14.9369C18.5081 14.8857 18.619 14.8108 18.7121 14.7164C18.8051 14.6221 18.8785 14.5101 18.9279 14.3872C18.9773 14.2642 19.0018 14.1326 18.9999 14.0001C18.9999 12.3552 17.6449 11.0001 15.9999 11.0001Z" fill="#767676"/>
<path d="M15.9999 3.00013C15.8674 2.99826 15.7358 3.02274 15.6128 3.07216C15.4899 3.12157 15.378 3.19493 15.2836 3.28797C15.1892 3.38102 15.1143 3.49189 15.0631 3.61415C15.012 3.73641 14.9857 3.86761 14.9857 4.00013C14.9857 4.13266 15.012 4.26386 15.0631 4.38612C15.1143 4.50838 15.1892 4.61925 15.2836 4.71229C15.378 4.80534 15.4899 4.8787 15.6128 4.92811C15.7358 4.97753 15.8674 5.00201 15.9999 5.00013C20.9825 5.00013 24.9999 9.01754 24.9999 14.0001C24.998 14.1326 25.0225 14.2642 25.0719 14.3872C25.1213 14.5101 25.1947 14.6221 25.2877 14.7164C25.3808 14.8108 25.4916 14.8857 25.6139 14.9369C25.7362 14.988 25.8674 15.0144 25.9999 15.0144C26.1324 15.0144 26.2636 14.988 26.3859 14.9369C26.5081 14.8857 26.619 14.8108 26.7121 14.7164C26.8051 14.6221 26.8785 14.5101 26.9279 14.3872C26.9773 14.2642 27.0018 14.1326 26.9999 14.0001C26.9999 7.93673 22.0633 3.00013 15.9999 3.00013ZM7.73817 5.00404C7.61275 4.99365 7.48506 5.00404 7.35731 5.03529C6.86131 5.15629 6.21786 5.45013 5.54286 6.12513C3.42986 8.23813 2.3088 11.8002 10.2538 19.7462C18.1988 27.6922 21.7609 26.5712 23.8749 24.4572C24.5519 23.7802 24.8457 23.1358 24.9667 22.6388C25.0897 22.1298 24.8699 21.6059 24.4179 21.3419C23.2899 20.6819 20.8555 19.2549 19.7265 18.5939C19.3555 18.3769 18.9001 18.3807 18.5311 18.5997L16.664 19.713C16.246 19.962 15.7237 19.9339 15.3397 19.6349C14.6767 19.1169 13.6105 18.2445 12.6815 17.3165C11.7525 16.3875 10.8802 15.3213 10.3632 14.6583C10.0642 14.2753 10.035 13.7521 10.285 13.3341L11.3983 11.4669C11.6183 11.0979 11.6192 10.6387 11.4022 10.2677L8.66005 5.58607C8.46055 5.24707 8.11444 5.03521 7.73817 5.00404ZM15.9999 7.00013C15.8674 6.99826 15.7358 7.02274 15.6128 7.07216C15.4899 7.12157 15.378 7.19493 15.2836 7.28797C15.1892 7.38102 15.1143 7.49189 15.0631 7.61415C15.012 7.73641 14.9857 7.86761 14.9857 8.00013C14.9857 8.13266 15.012 8.26386 15.0631 8.38612C15.1143 8.50838 15.1892 8.61925 15.2836 8.71229C15.378 8.80534 15.4899 8.8787 15.6128 8.92811C15.7358 8.97753 15.8674 9.00201 15.9999 9.00013C18.7736 9.00013 20.9999 11.2265 20.9999 14.0001C20.998 14.1326 21.0225 14.2642 21.0719 14.3872C21.1213 14.5101 21.1947 14.6221 21.2877 14.7164C21.3808 14.8108 21.4916 14.8857 21.6139 14.9369C21.7362 14.988 21.8674 15.0144 21.9999 15.0144C22.1324 15.0144 22.2636 14.988 22.3859 14.9369C22.5081 14.8857 22.619 14.8108 22.7121 14.7164C22.8051 14.6221 22.8785 14.5101 22.9279 14.3872C22.9773 14.2642 23.0018 14.1326 22.9999 14.0001C22.9999 10.1458 19.8542 7.00013 15.9999 7.00013ZM15.9999 11.0001C15.8674 10.9983 15.7358 11.0227 15.6128 11.0722C15.4899 11.1216 15.378 11.1949 15.2836 11.288C15.1892 11.381 15.1143 11.4919 15.0631 11.6141C15.012 11.7364 14.9857 11.8676 14.9857 12.0001C14.9857 12.1327 15.012 12.2639 15.0631 12.3861C15.1143 12.5084 15.1892 12.6193 15.2836 12.7123C15.378 12.8053 15.4899 12.8787 15.6128 12.9281C15.7358 12.9775 15.8674 13.002 15.9999 13.0001C16.5649 13.0001 16.9999 13.4351 16.9999 14.0001C16.998 14.1326 17.0225 14.2642 17.0719 14.3872C17.1213 14.5101 17.1947 14.6221 17.2877 14.7164C17.3808 14.8108 17.4916 14.8857 17.6139 14.9369C17.7362 14.988 17.8674 15.0144 17.9999 15.0144C18.1324 15.0144 18.2636 14.988 18.3859 14.9369C18.5081 14.8857 18.619 14.8108 18.7121 14.7164C18.8051 14.6221 18.8785 14.5101 18.9279 14.3872C18.9773 14.2642 19.0018 14.1326 18.9999 14.0001C18.9999 12.3552 17.6449 11.0001 15.9999 11.0001Z" fill="black" fill-opacity="0.2"/>
<path d="M15.9999 3.00013C15.8674 2.99826 15.7358 3.02274 15.6128 3.07216C15.4899 3.12157 15.378 3.19493 15.2836 3.28797C15.1892 3.38102 15.1143 3.49189 15.0631 3.61415C15.012 3.73641 14.9857 3.86761 14.9857 4.00013C14.9857 4.13266 15.012 4.26386 15.0631 4.38612C15.1143 4.50838 15.1892 4.61925 15.2836 4.71229C15.378 4.80534 15.4899 4.8787 15.6128 4.92811C15.7358 4.97753 15.8674 5.00201 15.9999 5.00013C20.9825 5.00013 24.9999 9.01754 24.9999 14.0001C24.998 14.1326 25.0225 14.2642 25.0719 14.3872C25.1213 14.5101 25.1947 14.6221 25.2877 14.7164C25.3808 14.8108 25.4916 14.8857 25.6139 14.9369C25.7362 14.988 25.8674 15.0144 25.9999 15.0144C26.1324 15.0144 26.2636 14.988 26.3859 14.9369C26.5081 14.8857 26.619 14.8108 26.7121 14.7164C26.8051 14.6221 26.8785 14.5101 26.9279 14.3872C26.9773 14.2642 27.0018 14.1326 26.9999 14.0001C26.9999 7.93673 22.0633 3.00013 15.9999 3.00013ZM7.73817 5.00404C7.61275 4.99365 7.48506 5.00404 7.35731 5.03529C6.86131 5.15629 6.21786 5.45013 5.54286 6.12513C3.42986 8.23813 2.3088 11.8002 10.2538 19.7462C18.1988 27.6922 21.7609 26.5712 23.8749 24.4572C24.5519 23.7802 24.8457 23.1358 24.9667 22.6388C25.0897 22.1298 24.8699 21.6059 24.4179 21.3419C23.2899 20.6819 20.8555 19.2549 19.7265 18.5939C19.3555 18.3769 18.9001 18.3807 18.5311 18.5997L16.664 19.713C16.246 19.962 15.7237 19.9339 15.3397 19.6349C14.6767 19.1169 13.6105 18.2445 12.6815 17.3165C11.7525 16.3875 10.8802 15.3213 10.3632 14.6583C10.0642 14.2753 10.035 13.7521 10.285 13.3341L11.3983 11.4669C11.6183 11.0979 11.6192 10.6387 11.4022 10.2677L8.66005 5.58607C8.46055 5.24707 8.11444 5.03521 7.73817 5.00404ZM15.9999 7.00013C15.8674 6.99826 15.7358 7.02274 15.6128 7.07216C15.4899 7.12157 15.378 7.19493 15.2836 7.28797C15.1892 7.38102 15.1143 7.49189 15.0631 7.61415C15.012 7.73641 14.9857 7.86761 14.9857 8.00013C14.9857 8.13266 15.012 8.26386 15.0631 8.38612C15.1143 8.50838 15.1892 8.61925 15.2836 8.71229C15.378 8.80534 15.4899 8.8787 15.6128 8.92811C15.7358 8.97753 15.8674 9.00201 15.9999 9.00013C18.7736 9.00013 20.9999 11.2265 20.9999 14.0001C20.998 14.1326 21.0225 14.2642 21.0719 14.3872C21.1213 14.5101 21.1947 14.6221 21.2877 14.7164C21.3808 14.8108 21.4916 14.8857 21.6139 14.9369C21.7362 14.988 21.8674 15.0144 21.9999 15.0144C22.1324 15.0144 22.2636 14.988 22.3859 14.9369C22.5081 14.8857 22.619 14.8108 22.7121 14.7164C22.8051 14.6221 22.8785 14.5101 22.9279 14.3872C22.9773 14.2642 23.0018 14.1326 22.9999 14.0001C22.9999 10.1458 19.8542 7.00013 15.9999 7.00013ZM15.9999 11.0001C15.8674 10.9983 15.7358 11.0227 15.6128 11.0722C15.4899 11.1216 15.378 11.1949 15.2836 11.288C15.1892 11.381 15.1143 11.4919 15.0631 11.6141C15.012 11.7364 14.9857 11.8676 14.9857 12.0001C14.9857 12.1327 15.012 12.2639 15.0631 12.3861C15.1143 12.5084 15.1892 12.6193 15.2836 12.7123C15.378 12.8053 15.4899 12.8787 15.6128 12.9281C15.7358 12.9775 15.8674 13.002 15.9999 13.0001C16.5649 13.0001 16.9999 13.4351 16.9999 14.0001C16.998 14.1326 17.0225 14.2642 17.0719 14.3872C17.1213 14.5101 17.1947 14.6221 17.2877 14.7164C17.3808 14.8108 17.4916 14.8857 17.6139 14.9369C17.7362 14.988 17.8674 15.0144 17.9999 15.0144C18.1324 15.0144 18.2636 14.988 18.3859 14.9369C18.5081 14.8857 18.619 14.8108 18.7121 14.7164C18.8051 14.6221 18.8785 14.5101 18.9279 14.3872C18.9773 14.2642 19.0018 14.1326 18.9999 14.0001C18.9999 12.3552 17.6449 11.0001 15.9999 11.0001Z" fill="black" fill-opacity="0.2"/>
</svg>
