<svg width="21" height="20" viewBox="0 0 21 20" fill="none" xmlns="http://www.w3.org/2000/svg">
<g opacity="0.4">
<path d="M10.3334 1.3335C6.28339 1.3335 3.00006 4.61683 3.00006 8.66683C3.00006 13.4895 7.76806 15.7982 8.36539 16.3355C8.97539 16.8842 9.47939 18.1142 9.68273 18.8115C9.78139 19.1502 10.0587 19.3215 10.3334 19.3288C10.6087 19.3208 10.8854 19.1495 10.9841 18.8115C11.1874 18.1142 11.6914 16.8848 12.3014 16.3355C12.8987 15.7982 17.6667 13.4895 17.6667 8.66683C17.6667 4.61683 14.3834 1.3335 10.3334 1.3335ZM10.3334 10.6668C9.22873 10.6668 8.33339 9.7715 8.33339 8.66683C8.33339 7.56216 9.22873 6.66683 10.3334 6.66683C11.4381 6.66683 12.3334 7.56216 12.3334 8.66683C12.3334 9.7715 11.4381 10.6668 10.3334 10.6668Z" fill="#767676"/>
<path d="M10.3334 1.3335C6.28339 1.3335 3.00006 4.61683 3.00006 8.66683C3.00006 13.4895 7.76806 15.7982 8.36539 16.3355C8.97539 16.8842 9.47939 18.1142 9.68273 18.8115C9.78139 19.1502 10.0587 19.3215 10.3334 19.3288C10.6087 19.3208 10.8854 19.1495 10.9841 18.8115C11.1874 18.1142 11.6914 16.8848 12.3014 16.3355C12.8987 15.7982 17.6667 13.4895 17.6667 8.66683C17.6667 4.61683 14.3834 1.3335 10.3334 1.3335ZM10.3334 10.6668C9.22873 10.6668 8.33339 9.7715 8.33339 8.66683C8.33339 7.56216 9.22873 6.66683 10.3334 6.66683C11.4381 6.66683 12.3334 7.56216 12.3334 8.66683C12.3334 9.7715 11.4381 10.6668 10.3334 10.6668Z" fill="black" fill-opacity="0.2"/>
<path d="M10.3334 1.3335C6.28339 1.3335 3.00006 4.61683 3.00006 8.66683C3.00006 13.4895 7.76806 15.7982 8.36539 16.3355C8.97539 16.8842 9.47939 18.1142 9.68273 18.8115C9.78139 19.1502 10.0587 19.3215 10.3334 19.3288C10.6087 19.3208 10.8854 19.1495 10.9841 18.8115C11.1874 18.1142 11.6914 16.8848 12.3014 16.3355C12.8987 15.7982 17.6667 13.4895 17.6667 8.66683C17.6667 4.61683 14.3834 1.3335 10.3334 1.3335ZM10.3334 10.6668C9.22873 10.6668 8.33339 9.7715 8.33339 8.66683C8.33339 7.56216 9.22873 6.66683 10.3334 6.66683C11.4381 6.66683 12.3334 7.56216 12.3334 8.66683C12.3334 9.7715 11.4381 10.6668 10.3334 10.6668Z" fill="black" fill-opacity="0.2"/>
</g>
</svg>
