<svg width="30" height="30" viewBox="0 0 30 30" fill="none" xmlns="http://www.w3.org/2000/svg">
<path d="M15.9999 3.00001C15.8674 2.99813 15.7358 3.02262 15.6128 3.07203C15.4899 3.12144 15.378 3.1948 15.2836 3.28785C15.1892 3.38089 15.1143 3.49177 15.0631 3.61402C15.012 3.73628 14.9857 3.86748 14.9857 4.00001C14.9857 4.13253 15.012 4.26374 15.0631 4.38599C15.1143 4.50825 15.1892 4.61912 15.2836 4.71217C15.378 4.80521 15.4899 4.87857 15.6128 4.92799C15.7358 4.9774 15.8674 5.00188 15.9999 5.00001C20.9825 5.00001 24.9999 9.01742 24.9999 14C24.998 14.1325 25.0225 14.2641 25.0719 14.3871C25.1213 14.51 25.1947 14.6219 25.2877 14.7163C25.3808 14.8107 25.4916 14.8856 25.6139 14.9368C25.7362 14.9879 25.8674 15.0143 25.9999 15.0143C26.1324 15.0143 26.2636 14.9879 26.3859 14.9368C26.5081 14.8856 26.619 14.8107 26.7121 14.7163C26.8051 14.6219 26.8785 14.51 26.9279 14.3871C26.9773 14.2641 27.0018 14.1325 26.9999 14C26.9999 7.9366 22.0633 3.00001 15.9999 3.00001ZM7.73817 5.00391C7.61275 4.99352 7.48506 5.00391 7.35731 5.03516C6.86131 5.15616 6.21786 5.45001 5.54286 6.12501C3.42986 8.23801 2.3088 11.8001 10.2538 19.7461C18.1988 27.6921 21.7609 26.571 23.8749 24.457C24.5519 23.78 24.8457 23.1357 24.9667 22.6387C25.0897 22.1297 24.8699 21.6058 24.4179 21.3418C23.2899 20.6818 20.8555 19.2548 19.7265 18.5938C19.3555 18.3768 18.9001 18.3806 18.5311 18.5996L16.664 19.7129C16.246 19.9619 15.7237 19.9338 15.3397 19.6348C14.6767 19.1168 13.6105 18.2444 12.6815 17.3164C11.7525 16.3874 10.8802 15.3212 10.3632 14.6582C10.0642 14.2752 10.035 13.752 10.285 13.334L11.3983 11.4668C11.6183 11.0978 11.6192 10.6386 11.4022 10.2676L8.66005 5.58595C8.46055 5.24695 8.11444 5.03509 7.73817 5.00391ZM15.9999 7.00001C15.8674 6.99813 15.7358 7.02262 15.6128 7.07203C15.4899 7.12144 15.378 7.1948 15.2836 7.28785C15.1892 7.38089 15.1143 7.49177 15.0631 7.61402C15.012 7.73628 14.9857 7.86748 14.9857 8.00001C14.9857 8.13253 15.012 8.26374 15.0631 8.38599C15.1143 8.50825 15.1892 8.61912 15.2836 8.71217C15.378 8.80521 15.4899 8.87857 15.6128 8.92799C15.7358 8.9774 15.8674 9.00188 15.9999 9.00001C18.7736 9.00001 20.9999 11.2263 20.9999 14C20.998 14.1325 21.0225 14.2641 21.0719 14.3871C21.1213 14.51 21.1947 14.6219 21.2877 14.7163C21.3808 14.8107 21.4916 14.8856 21.6139 14.9368C21.7362 14.9879 21.8674 15.0143 21.9999 15.0143C22.1324 15.0143 22.2636 14.9879 22.3859 14.9368C22.5081 14.8856 22.619 14.8107 22.7121 14.7163C22.8051 14.6219 22.8785 14.51 22.9279 14.3871C22.9773 14.2641 23.0018 14.1325 22.9999 14C22.9999 10.1457 19.8542 7.00001 15.9999 7.00001ZM15.9999 11C15.8674 10.9981 15.7358 11.0226 15.6128 11.072C15.4899 11.1214 15.378 11.1948 15.2836 11.2878C15.1892 11.3809 15.1143 11.4918 15.0631 11.614C15.012 11.7363 14.9857 11.8675 14.9857 12C14.9857 12.1325 15.012 12.2637 15.0631 12.386C15.1143 12.5083 15.1892 12.6191 15.2836 12.7122C15.378 12.8052 15.4899 12.8786 15.6128 12.928C15.7358 12.9774 15.8674 13.0019 15.9999 13C16.5649 13 16.9999 13.435 16.9999 14C16.998 14.1325 17.0225 14.2641 17.0719 14.3871C17.1213 14.51 17.1947 14.6219 17.2877 14.7163C17.3808 14.8107 17.4916 14.8856 17.6139 14.9368C17.7362 14.9879 17.8674 15.0143 17.9999 15.0143C18.1324 15.0143 18.2636 14.9879 18.3859 14.9368C18.5081 14.8856 18.619 14.8107 18.7121 14.7163C18.8051 14.6219 18.8785 14.51 18.9279 14.3871C18.9773 14.2641 19.0018 14.1325 18.9999 14C18.9999 12.355 17.6449 11 15.9999 11Z" fill="#7C130E"/>
</svg>
