<svg width="20" height="20" viewBox="0 0 20 20" fill="none" xmlns="http://www.w3.org/2000/svg">
<path d="M10 0.8C15.0812 0.8 19.2 4.9188 19.2 10C19.2 15.0812 15.0812 19.2 10 19.2C4.91885 19.2 0.800049 15.0812 0.800049 10C0.800049 4.9188 4.91885 0.8 10 0.8ZM13.1736 13.75C13.3428 13.2308 14.1356 8.0564 14.2336 7.0368C14.2632 6.728 14.1656 6.5228 13.9744 6.4312C13.7432 6.32 13.4008 6.3756 13.0036 6.5188C12.4588 6.7152 5.49405 9.6724 5.09165 9.8436C4.71005 10.0056 4.34925 10.1824 4.34925 10.4384C4.34925 10.6184 4.45605 10.7196 4.75045 10.8248C5.05685 10.934 5.82845 11.168 6.28405 11.2936C6.72285 11.4148 7.22245 11.3096 7.50245 11.1356C7.79925 10.9512 11.2244 8.6592 11.4704 8.4584C11.716 8.2576 11.912 8.5148 11.7112 8.716C11.5104 8.9168 9.15925 11.1988 8.84925 11.5148C8.47285 11.8984 8.74005 12.296 8.99245 12.4552C9.28085 12.6368 11.3548 14.028 11.6672 14.2512C11.9796 14.4744 12.2964 14.5756 12.5864 14.5756C12.8764 14.5756 13.0292 14.1936 13.1736 13.75Z" fill="#329FCE"/>
</svg>
