<svg width="30" height="30" viewBox="0 0 30 30" fill="none" xmlns="http://www.w3.org/2000/svg">
<path d="M6.83333 4C6.3471 4 5.88079 4.19315 5.53697 4.53697C5.19315 4.88079 5 5.3471 5 5.83333V11.3333C5.0006 11.713 5.11908 12.0832 5.33908 12.3927C5.55909 12.7022 5.86976 12.9357 6.22819 13.061C6.42253 13.13 6.62711 13.1657 6.83333 13.1667C6.8399 13.1667 6.84646 13.1667 6.85303 13.1667L17.8333 15L6.85303 16.8351C6.84647 16.8345 6.8399 16.8339 6.83333 16.8333C6.62651 16.8341 6.4213 16.8698 6.2264 16.939C5.8683 17.0646 5.55802 17.2983 5.33835 17.6077C5.11869 17.9172 5.00047 18.2872 5 18.6667V24.1667C5 24.6529 5.19315 25.1192 5.53697 25.463C5.88079 25.8068 6.3471 26 6.83333 26C7.15253 25.9994 7.46604 25.9155 7.74284 25.7565H7.74463L26.4414 15.8451L26.4432 15.8415C26.6082 15.7711 26.7488 15.6538 26.8478 15.5042C26.9468 15.3547 26.9997 15.1794 27 15C27.0002 14.8198 26.9474 14.6436 26.848 14.4933C26.7487 14.343 26.6073 14.2253 26.4414 14.1549L7.74463 4.24349C7.4673 4.08423 7.15314 4.00029 6.83333 4Z" fill="#E2231A"/>
</svg>
