<svg width="18" height="19" viewBox="0 0 18 19" fill="none" xmlns="http://www.w3.org/2000/svg">
<path d="M5.53503 18.1504C5.45461 18.1504 5.37336 18.1358 5.29503 18.1062C5.0342 18.0067 4.86211 17.7567 4.86211 17.4775V15.4167C3.89461 15.1271 2.9842 14.7142 2.39628 14.1867C1.22878 13.0092 0.698364 11.3596 0.698364 8.96833V7.6225C0.698364 5.23125 1.22878 3.58167 2.36753 2.43208C4.32961 0.666667 7.84503 0.666667 9.00003 0.666667C10.155 0.666667 13.67 0.666667 15.6034 2.405C16.7704 3.58125 17.3009 5.23042 17.3009 7.6225L17.3013 8.96833C17.3013 11.3596 16.7709 13.0092 15.6321 14.1588C13.67 15.9237 10.1546 15.9237 8.99961 15.9237C8.72336 15.9237 8.41836 15.9237 7.89878 15.8975C7.35461 16.5063 6.03711 17.9258 6.03711 17.9258C5.9067 18.0717 5.72295 18.1504 5.53503 18.1504ZM12.5213 11.4392C12.0584 11.0492 11.8446 10.9313 11.2054 10.5475C10.9392 10.3879 10.5334 10.25 10.3204 10.25C10.175 10.25 10.0009 10.3612 9.8942 10.4679C9.62086 10.7413 9.53128 11.0833 9.05211 11.0833C8.58336 11.0833 7.76461 10.6062 7.17711 9.98958C6.56045 9.40208 6.08336 8.58333 6.08336 8.11458C6.08336 7.63542 6.4192 7.53958 6.69253 7.26583C6.7992 7.15958 6.9167 6.98542 6.9167 6.84C6.9167 6.62708 6.77878 6.2275 6.6192 5.96125C6.23545 5.32167 6.11795 5.10792 5.72753 4.64542C5.59545 4.48875 5.44503 4.41708 5.28753 4.41667C5.02128 4.41625 4.6717 4.54833 4.43503 4.72458C4.0792 4.99 3.70711 5.35125 3.60753 5.80125C3.5942 5.8625 3.58628 5.92417 3.58378 5.98583C3.56461 6.45458 3.74878 6.93042 3.94753 7.33333C4.41545 8.28292 5.03461 9.20208 5.70836 10.0229C5.92378 10.2854 6.15836 10.5296 6.40128 10.7654C6.63711 11.0079 6.88128 11.2425 7.14378 11.4583C7.96461 12.1321 8.88378 12.7512 9.83336 13.2192C10.2325 13.4158 10.7025 13.5967 11.1667 13.5833C11.2329 13.5813 11.2992 13.5738 11.3654 13.5592C11.8154 13.46 12.1767 13.0875 12.4421 12.7317C12.6184 12.495 12.7504 12.1458 12.75 11.8792C12.7496 11.7217 12.6779 11.5712 12.5213 11.4392ZM14 8.16667V7.75C14 5.22292 11.9438 3.16667 9.4167 3.16667C9.1867 3.16667 9.00003 3.35333 9.00003 3.58333C9.00003 3.81333 9.1867 4 9.4167 4C11.4842 4 13.1667 5.6825 13.1667 7.75V8.16667C13.1667 8.39667 13.3534 8.58333 13.5834 8.58333C13.8134 8.58333 14 8.39667 14 8.16667ZM11.1296 7.73625C11.3521 7.67792 11.4854 7.45083 11.4275 7.22792C11.2371 6.49792 10.6663 5.9275 9.93795 5.73875C9.7142 5.68167 9.48753 5.81542 9.43003 6.03792C9.37253 6.26083 9.50628 6.48792 9.7292 6.54583C10.1654 6.65833 10.5071 7.00042 10.6213 7.43833C10.67 7.62583 10.8392 7.75 11.0242 7.75C11.0588 7.75 11.0942 7.74542 11.1296 7.73625ZM12.75 7.75C12.75 5.97833 11.3642 4.51708 9.59461 4.42375C9.36836 4.41125 9.16878 4.58792 9.1567 4.81792C9.14461 5.0475 9.32086 5.24375 9.55086 5.25583C10.8775 5.32583 11.9167 6.42167 11.9167 7.75C11.9167 7.98 12.1034 8.16667 12.3334 8.16667C12.5634 8.16667 12.75 7.98 12.75 7.75Z" fill="#A627D4"/>
</svg>
