<svg width="33" height="32" viewBox="0 0 33 32" fill="none" xmlns="http://www.w3.org/2000/svg">
<path d="M16.3333 1.27979C8.2168 1.27979 1.61328 7.88331 1.61328 15.9998C1.61328 18.5342 2.26793 21.0257 3.50953 23.2248L1.63703 29.9073C1.57559 30.1268 1.63456 30.3616 1.79328 30.5248C1.91552 30.6509 2.0824 30.7198 2.25328 30.7198C2.30448 30.7198 2.35647 30.7132 2.40703 30.701L9.38078 28.9735C11.5101 30.1166 13.9077 30.7198 16.3333 30.7198C24.4498 30.7198 31.0533 24.1163 31.0533 15.9998C31.0533 7.88331 24.4498 1.27979 16.3333 1.27979ZM10.9845 8.95978C11.2367 8.95978 11.4875 8.96329 11.7083 8.97354C11.9406 8.98505 12.253 8.88521 12.5595 9.61353C12.8744 10.3611 13.6298 12.1973 13.7233 12.3848C13.818 12.5717 13.8812 12.7896 13.7558 13.0385C13.6303 13.2875 13.5677 13.444 13.3783 13.6623C13.1888 13.8805 12.981 14.1484 12.8108 14.316C12.6213 14.5023 12.4244 14.7035 12.6445 15.0773C12.8647 15.451 13.6232 16.6728 14.747 17.6623C16.1902 18.9333 17.4082 19.3279 17.7858 19.5148C18.1634 19.7017 18.3844 19.67 18.6045 19.421C18.8247 19.1714 19.5493 18.3317 19.8008 17.9585C20.0523 17.5854 20.3039 17.6462 20.6508 17.771C20.9977 17.8952 22.8557 18.7979 23.2333 18.9848C23.6109 19.1717 23.8636 19.2655 23.9583 19.421C24.053 19.5759 24.0532 20.3225 23.7383 21.1935C23.4234 22.0652 21.9128 22.8617 21.187 22.9685C20.5355 23.0639 19.7107 23.1039 18.8058 22.8198C18.2573 22.647 17.5538 22.4182 16.652 22.0335C12.8613 20.4169 10.3852 16.6475 10.1958 16.3985C10.007 16.1496 8.65328 14.3759 8.65328 12.5398C8.65328 10.7036 9.6289 9.80105 9.97578 9.42729C10.3227 9.05352 10.7324 8.95978 10.9845 8.95978Z" fill="#2DCB30"/>
</svg>
